<?xml version="1.0" encoding="UTF-8" standalone="no"?> <svg xmlns="http://www.w3.org/2000/svg" xmlns:xlink="http://www.w3.org/1999/xlink" xmlns:serif="http://www.serif.com/" width="100%" height="100%" viewBox="0 0 1540 2500" xml:space="preserve" style="fill-rule:evenodd;clip-rule:evenodd;stroke-linejoin:round;stroke-miterlimit:1.41421;"> <g transform="matrix(-2921.51,0,0,-3193.9,2913.54,823.79)"> <path d="M0.968,0.112C0.938,0.071 0.941,0.028 0.964,-0.006C0.98,-0.032 0.999,-0.078 0.988,-0.13C0.974,-0.201 0.932,-0.216 0.909,-0.223C0.862,-0.237 0.809,-0.235 0.85,-0.289C0.891,-0.344 0.853,-0.401 0.808,-0.412C0.778,-0.42 0.766,-0.427 0.768,-0.471C0.769,-0.494 0.747,-0.508 0.721,-0.508C0.696,-0.507 0.657,-0.467 0.599,-0.494C0.578,-0.503 0.531,-0.55 0.486,-0.507C0.456,-0.479 0.474,-0.438 0.502,-0.411C0.527,-0.388 0.525,-0.367 0.499,-0.339C0.466,-0.305 0.463,-0.274 0.498,-0.224C0.524,-0.186 0.465,-0.179 0.489,-0.127C0.506,-0.089 0.428,-0.052 0.503,0.008C0.547,0.044 0.572,0.052 0.533,0.107C0.466,0.202 0.554,0.292 0.684,0.244C0.742,0.223 0.785,0.264 0.838,0.226C0.885,0.191 0.942,0.232 0.976,0.202C1.001,0.179 0.993,0.147 0.968,0.112Z" style="fill:url(#_Linear1);fill-rule:nonzero;"></path> </g> <g transform="matrix(-1251.36,0,0,-1368.04,1163.2,1022.83)"> <path d="M0.87,0.339C0.808,0.269 0.849,0.21 0.877,0.142C0.914,0.048 0.921,-0.287 0.714,-0.336C0.656,-0.35 0.576,-0.369 0.543,-0.406C0.498,-0.456 0.542,-0.511 0.551,-0.527C0.624,-0.655 0.553,-0.739 0.464,-0.774C0.265,-0.853 0.443,-0.961 0.32,-1.007C0.23,-1.04 0.206,-0.942 0.056,-0.962C-0.023,-0.973 -0.125,-1.079 -0.219,-1.014C-0.282,-0.969 -0.254,-0.887 -0.217,-0.846C-0.128,-0.751 -0.171,-0.669 -0.221,-0.612C-0.246,-0.582 -0.282,-0.532 -0.202,-0.43C-0.072,-0.265 -0.232,-0.282 -0.197,-0.14C-0.175,-0.05 -0.24,-0.053 -0.241,0.038C-0.242,0.145 0.025,0.226 -0.103,0.378C-0.29,0.598 -0.081,0.78 0.187,0.69C0.326,0.644 0.421,0.75 0.541,0.653C0.658,0.558 0.788,0.68 0.899,0.572C0.949,0.522 0.936,0.413 0.87,0.339Z" style="fill:url(#_Radial2);fill-rule:nonzero;"></path> </g> <defs> <linearGradient id="_Linear1" x1="0" y1="0" x2="1" y2="0" gradientUnits="userSpaceOnUse" gradientTransform="matrix(1,0,0,-1,0,3.54626e-07)"><stop offset="0" style="stop-color:rgb(58,27,165);stop-opacity:1"></stop><stop offset="1" style="stop-color:rgb(75,74,243);stop-opacity:1"></stop></linearGradient> <radialGradient id="_Radial2" cx="0" cy="0" r="1" gradientUnits="userSpaceOnUse" gradientTransform="matrix(1,0,0,-1,0,0.282534)"><stop offset="0" style="stop-color:rgb(68,50,203);stop-opacity:1"></stop><stop offset="1" style="stop-color:rgb(28,17,82);stop-opacity:1"></stop></radialGradient> </defs> </svg> 