<?xml version="1.0" encoding="UTF-8" standalone="no"?> <svg xmlns="http://www.w3.org/2000/svg" xmlns:xlink="http://www.w3.org/1999/xlink" xmlns:serif="http://www.serif.com/" width="100%" height="100%" viewBox="0 0 23 17" xml:space="preserve" style="fill-rule:evenodd;clip-rule:evenodd;stroke-linejoin:round;stroke-miterlimit:2;"> <g transform="matrix(1,0,0,1,-0.000736784,-3.00031)"> <g transform="matrix(1,0,0,1,0,3)"> <path d="M17.5,0C20.538,0 23,2.462 23,5.5C23,7.744 21.832,9.914 20.089,10.333C19.416,10.495 18.881,11.358 18.996,12.343C19.15,13.661 20.342,14.993 22.703,16.043C23.229,16.277 23.009,17.068 22.438,16.996C16.285,16.226 12.021,12.215 12,6.54C12,2.637 14.306,0 17.5,0Z" style="fill:rgb(226,12,166);fill-rule:nonzero;"></path> </g> <g transform="matrix(1,0,0,1,0,3)"> <path d="M5.5,0C8.538,0 11,2.462 11,5.5C11,7.744 9.832,9.914 8.089,10.333C7.416,10.495 6.881,11.358 6.996,12.343C7.15,13.661 8.342,14.993 10.703,16.043C11.229,16.277 11.009,17.068 10.438,16.996C4.285,16.226 0.021,12.215 0,6.54C0,2.637 2.306,0 5.5,0Z" style="fill:rgb(226,12,166);fill-rule:nonzero;"></path> </g> </g> </svg> 